<svg width="92" height="36" viewBox="0 0 92 36" fill="none" xmlns="http://www.w3.org/2000/svg">
<path d="M12 9.248V11.96H5.016V16.256H10.368V18.92H5.016V26H1.656V9.248H12ZM20.5266 26.216C19.2466 26.216 18.0946 25.936 17.0706 25.376C16.0466 24.8 15.2386 23.992 14.6466 22.952C14.0706 21.912 13.7826 20.712 13.7826 19.352C13.7826 17.992 14.0786 16.792 14.6706 15.752C15.2786 14.712 16.1026 13.912 17.1426 13.352C18.1826 12.776 19.3426 12.488 20.6226 12.488C21.9026 12.488 23.0626 12.776 24.1026 13.352C25.1426 13.912 25.9586 14.712 26.5506 15.752C27.1586 16.792 27.4626 17.992 27.4626 19.352C27.4626 20.712 27.1506 21.912 26.5266 22.952C25.9186 23.992 25.0866 24.8 24.0306 25.376C22.9906 25.936 21.8226 26.216 20.5266 26.216ZM20.5266 23.288C21.1346 23.288 21.7026 23.144 22.2306 22.856C22.7746 22.552 23.2066 22.104 23.5266 21.512C23.8466 20.92 24.0066 20.2 24.0066 19.352C24.0066 18.088 23.6706 17.12 22.9986 16.448C22.3426 15.76 21.5346 15.416 20.5746 15.416C19.6146 15.416 18.8066 15.76 18.1506 16.448C17.5106 17.12 17.1906 18.088 17.1906 19.352C17.1906 20.616 17.5026 21.592 18.1266 22.28C18.7666 22.952 19.5666 23.288 20.5266 23.288ZM36.0713 26.216C34.7912 26.216 33.6392 25.936 32.6152 25.376C31.5912 24.8 30.7832 23.992 30.1912 22.952C29.6152 21.912 29.3272 20.712 29.3272 19.352C29.3272 17.992 29.6232 16.792 30.2152 15.752C30.8232 14.712 31.6472 13.912 32.6872 13.352C33.7272 12.776 34.8872 12.488 36.1672 12.488C37.4472 12.488 38.6072 12.776 39.6472 13.352C40.6873 13.912 41.5033 14.712 42.0953 15.752C42.7033 16.792 43.0073 17.992 43.0073 19.352C43.0073 20.712 42.6953 21.912 42.0712 22.952C41.4632 23.992 40.6312 24.8 39.5753 25.376C38.5353 25.936 37.3673 26.216 36.0713 26.216ZM36.0713 23.288C36.6793 23.288 37.2472 23.144 37.7752 22.856C38.3192 22.552 38.7513 22.104 39.0713 21.512C39.3912 20.92 39.5512 20.2 39.5512 19.352C39.5512 18.088 39.2152 17.12 38.5432 16.448C37.8872 15.76 37.0792 15.416 36.1192 15.416C35.1592 15.416 34.3512 15.76 33.6952 16.448C33.0552 17.12 32.7352 18.088 32.7352 19.352C32.7352 20.616 33.0472 21.592 33.6712 22.28C34.3112 22.952 35.1113 23.288 36.0713 23.288ZM44.8479 19.304C44.8479 17.96 45.1119 16.768 45.6399 15.728C46.1839 14.688 46.9199 13.888 47.8479 13.328C48.7759 12.768 49.8079 12.488 50.9439 12.488C51.8079 12.488 52.6319 12.68 53.4159 13.064C54.1999 13.432 54.8239 13.928 55.2879 14.552V8.24H58.6959V26H55.2879V24.032C54.8719 24.688 54.2879 25.216 53.5359 25.616C52.7839 26.016 51.9119 26.216 50.9199 26.216C49.7999 26.216 48.7759 25.928 47.8479 25.352C46.9199 24.776 46.1839 23.968 45.6399 22.928C45.1119 21.872 44.8479 20.664 44.8479 19.304ZM55.3119 19.352C55.3119 18.536 55.1519 17.84 54.8319 17.264C54.5119 16.672 54.0799 16.224 53.5359 15.92C52.9919 15.6 52.4079 15.44 51.7839 15.44C51.1599 15.44 50.5839 15.592 50.0559 15.896C49.5279 16.2 49.0959 16.648 48.7599 17.24C48.4399 17.816 48.2799 18.504 48.2799 19.304C48.2799 20.104 48.4399 20.808 48.7599 21.416C49.0959 22.008 49.5279 22.464 50.0559 22.784C50.5999 23.104 51.1759 23.264 51.7839 23.264C52.4079 23.264 52.9919 23.112 53.5359 22.808C54.0799 22.488 54.5119 22.04 54.8319 21.464C55.1519 20.872 55.3119 20.168 55.3119 19.352ZM63.9216 11.12C63.3296 11.12 62.8336 10.936 62.4336 10.568C62.0496 10.184 61.8576 9.712 61.8576 9.152C61.8576 8.592 62.0496 8.128 62.4336 7.76C62.8336 7.376 63.3296 7.184 63.9216 7.184C64.5136 7.184 65.0016 7.376 65.3856 7.76C65.7856 8.128 65.9856 8.592 65.9856 9.152C65.9856 9.712 65.7856 10.184 65.3856 10.568C65.0016 10.936 64.5136 11.12 63.9216 11.12ZM65.5776 12.704V26H62.2176V12.704H65.5776ZM81.4972 19.064C81.4972 19.544 81.4652 19.976 81.4012 20.36H71.6812C71.7612 21.32 72.0972 22.072 72.6892 22.616C73.2812 23.16 74.0092 23.432 74.8732 23.432C76.1212 23.432 77.0092 22.896 77.5372 21.824H81.1612C80.7772 23.104 80.0412 24.16 78.9532 24.992C77.8652 25.808 76.5292 26.216 74.9452 26.216C73.6652 26.216 72.5132 25.936 71.4892 25.376C70.4812 24.8 69.6892 23.992 69.1132 22.952C68.5532 21.912 68.2732 20.712 68.2732 19.352C68.2732 17.976 68.5532 16.768 69.1132 15.728C69.6732 14.688 70.4572 13.888 71.4652 13.328C72.4732 12.768 73.6332 12.488 74.9452 12.488C76.2092 12.488 77.3372 12.76 78.3292 13.304C79.3372 13.848 80.1132 14.624 80.6572 15.632C81.2172 16.624 81.4972 17.768 81.4972 19.064ZM78.0172 18.104C78.0012 17.24 77.6892 16.552 77.0812 16.04C76.4732 15.512 75.7292 15.248 74.8492 15.248C74.0172 15.248 73.3132 15.504 72.7372 16.016C72.1772 16.512 71.8332 17.208 71.7052 18.104H78.0172Z" fill="#E84545"/>
<circle cx="88.5" cy="22.5" r="3.5" fill="#FFC107"/>
</svg>
