<svg width="26" height="26" viewBox="0 0 26 26" fill="none" xmlns="http://www.w3.org/2000/svg">
<g clip-path="url(#clip0)">
<path d="M25.6823 24.1506L18.2886 16.7569C19.7208 14.9879 20.5831 12.74 20.5831 10.2917C20.5831 4.61724 15.966 9.91821e-05 10.2915 9.91821e-05C4.61709 9.91821e-05 0 4.61719 0 10.2916C0 15.9661 4.61714 20.5832 10.2916 20.5832C12.7399 20.5832 14.9878 19.7209 16.7568 18.2887L24.1505 25.6824C24.3618 25.8937 24.6391 25.9998 24.9164 25.9998C25.1938 25.9998 25.4711 25.8937 25.6824 25.6824C26.1059 25.2589 26.1059 24.5742 25.6823 24.1506ZM10.2916 18.4166C5.81094 18.4166 2.16666 14.7723 2.16666 10.2916C2.16666 5.81099 5.81094 2.16671 10.2916 2.16671C14.7722 2.16671 18.4165 5.81099 18.4165 10.2916C18.4165 14.7723 14.7722 18.4166 10.2916 18.4166Z" fill="#A9A9A9"/>
</g>
<defs>
<clipPath id="clip0">
<rect width="26" height="26" fill="white"/>
</clipPath>
</defs>
</svg>
